# xmcd CD database file
#
# Track frame offsets:
#	150
#	20094
#	40245
#	56076
#	76836
#	101783
#	120604
#	140593
#	156285
#	175683
#	197943
#	218076
#
# Disc length: 3145 seconds
#
# Revision: 0
# Processed by: cddbd v1.5.2PL0 Copyright (c) Steve Scherf et al.
# Submitted via: CDex 1.70beta2
#
DISCID=a90c470c
DTITLE=Richard Bona - Scenes from my life
DYEAR=1999
DGENRE=Jazz
TTITLE0=Dipita
TTITLE1=New Bell
TTITLE2=Souwedi Na Wengue
TTITLE3=Eyala
TTITLE4=Djombwe
TTITLE5=Te dikalo
TTITLE6=One minute
TTITLE7=Muna Nyuwe
TTITLE8=Na mala nde
TTITLE9=Konda Djanea
TTITLE10=eyando
TTITLE11=Messanga
EXTD=YEAR: 1999
EXTT0=
EXTT1=
EXTT2=
EXTT3=
EXTT4=
EXTT5=
EXTT6=
EXTT7=
EXTT8=
EXTT9=
EXTT10=
EXTT11=
PLAYORDER=
